<svg xmlns="http://www.w3.org/2000/svg" width="200.003" height="200.003" viewBox="0 0 200.003 200.003"><path fill="#222" d="M0 200.003V0h200.003v200.003H0zm32.206-43.22h69.816v-44.457h8.694c8.168 14.967 16.288 29.842 24.266 44.458h32.442l-29.188-48.008c15.59-6.675 22.125-14.804 23.02-28.047 1.174-17.415-7.585-30.084-24.567-34.44-6.053-1.553-12.474-2.124-18.746-2.264-14.3-.322-28.613-.102-43.577-.102v86.617h-42.16v26.244z"/><path fill-rule="evenodd" clip-rule="evenodd" fill="#fff" d="M32.206 156.784v-26.242h42.16V43.925c14.965 0 29.277-.22 43.578.102 6.272.14 12.693.71 18.745 2.264 16.98 4.356 25.74 17.026 24.565 34.44-.894 13.243-7.428 21.372-23.02 28.047l29.19 48.008H134.98c-7.978-14.616-16.098-29.49-24.266-44.458h-8.694v44.458H32.206zm69.767-65.03c8.372.24 16.34.83 24.032-1.815 5.438-1.87 8.124-5.945 7.958-11.332-.156-5.046-3.123-8.854-8.62-10.223-7.636-1.9-15.405-1.27-23.37-1.063v24.43z"/><path fill-rule="evenodd" clip-rule="evenodd" fill="#222" d="M101.973 91.753V67.32c7.965-.204 15.734-.836 23.37 1.064 5.497 1.37 8.464 5.177 8.62 10.223.166 5.387-2.52 9.46-7.958 11.33-7.692 2.647-15.66 2.057-24.032 1.816z"/></svg>